# xmcd
#
# Track frame offsets: 
#        183
#        10570
#        25908
#        43093
#        61350
#        74858
#        90243
#        106940
#        126350
#        146890
#        160565
#        176168
#        187058
#        200500
#        215168
#        226420
#
# Disc length: 3210 seconds
#
# Revision: 5
# Processed by: cddbd v1.5.2PL0 Copyright (c) Steve Scherf et al.
# Submitted via: ExactAudioCopyFreeDBPlugin 1.0
#
DISCID=eb0c8810
DTITLE=Kris Kristofferson - Help me make It through the night
DYEAR=1900
DGENRE=Country
TTITLE0=Help me make it  through the night
TTITLE1=For the good times
TTITLE2=Lovin' her was easier
TTITLE3=He's my Buddy
TTITLE4=Kiss the world Goodbye
TTITLE5=If you don't know Hank Williams
TTITLE6=Magdalena
TTITLE7=Silver tongued devil and I
TTITLE8=Sunday mornin' comin' down
TTITLE9=When I loved her
TTITLE10=Why me
TTITLE11=The bandit of Beverly Hills
TTITLE12=Shake hands with the Devil
TTITLE13=Shadows of your mind
TTITLE14=Jesus was a capricorn
TTITLE15=Daddy's song
EXTD=Lilo ID3G: 2
EXTT0=
EXTT1=
EXTT2=
EXTT3=
EXTT4=
EXTT5=
EXTT6=
EXTT7=
EXTT8=
EXTT9=
EXTT10=
EXTT11=
EXTT12=
EXTT13=
EXTT14=
EXTT15=
PLAYORDER=
